PathFileType	4	(X/Y/Z)	regression/subject01/trials/walk2/markers.trc
DataRate	CameraRate	NumFrames	NumMarkers	Units	OrigDataRate	OrigDataStartFrame	OrigNumFrames
200.00000000000426	200.00000000000426	4	64	m	200.00000000000426	55	223
Frame#	Time	CLAV			C7			RACR			RASH			RPSH			RLEL			RMEL			RUA1			RUA2			RUA3			RFAsuperior			RFAradius			RFAulna			RASI			RPSI			RCAL			RTOE			RMT5			RTH1			RTH2			RTH3			RTB1			RTB2			RTB3			RLFC			RMFC			RLMAL			RMMAL			RHJC			RKJC			REJC			RAJC			RSJC			LACR			LASH			LPSH			LLEL			LMEL			LUA1			LUA2			LUA3			LFAsuperior			LFAradius			LFAulna			LASI			LPSI			LCAL			LTOE			LMT5			LTH1			LTH2			LTH3			LTB1			LTB2			LTB3			LLFC			LMFC			LLMAL			LMMAL			LHJC			LKJC			LEJC			LAJC			LSJC			
		X1	Y1	Z1	X2	Y2	Z2	X3	Y3	Z3	X4	Y4	Z4	X5	Y5	Z5	X6	Y6	Z6	X7	Y7	Z7	X8	Y8	Z8	X9	Y9	Z9	X10	Y10	Z10	X11	Y11	Z11	X12	Y12	Z12	X13	Y13	Z13	X14	Y14	Z14	X15	Y15	Z15	X16	Y16	Z16	X17	Y17	Z17	X18	Y18	Z18	X19	Y19	Z19	X20	Y20	Z20	X21	Y21	Z21	X22	Y22	Z22	X23	Y23	Z23	X24	Y24	Z24	X25	Y25	Z25	X26	Y26	Z26	X27	Y27	Z27	X28	Y28	Z28	X29	Y29	Z29	X30	Y30	Z30	X31	Y31	Z31	X32	Y32	Z32	X33	Y33	Z33	X34	Y34	Z34	X35	Y35	Z35	X36	Y36	Z36	X37	Y37	Z37	X38	Y38	Z38	X39	Y39	Z39	X40	Y40	Z40	X41	Y41	Z41	X42	Y42	Z42	X43	Y43	Z43	X44	Y44	Z44	X45	Y45	Z45	X46	Y46	Z46	X47	Y47	Z47	X48	Y48	Z48	X49	Y49	Z49	X50	Y50	Z50	X51	Y51	Z51	X52	Y52	Z52	X53	Y53	Z53	X54	Y54	Z54	X55	Y55	Z55	X56	Y56	Z56	X57	Y57	Z57	X58	Y58	Z58	X59	Y59	Z59	X60	Y60	Z60	X61	Y61	Z61	X62	Y62	Z62	X63	Y63	Z63	X64	Y64	Z64	

56	3.655	1.327860224790429	1.463211575301061	-0.4926740849771564	1.216407310417228	1.537991454773689	-0.4716338979129654	1.316567723407277	1.50591219977209	-0.3377728643289436	1.365321046895529	1.442846387907643	-0.3022094690961356	1.268298456092415	1.460538316569634	-0.2864719539774627	1.205703571344543	1.138643628773833	-0.2107895806243947	1.199679002660622	1.12166944877533	-0.2984710692663232	1.295070157379905	1.398709808800752	-0.2675084162394343	1.227871588010941	1.230703999037226	-0.2455242198823579	1.291375628505724	1.29703701981603	-0.2497655393412825	1.24966605805709	1.048976420485715	-0.249080425473124	1.329630829562179	0.8983718517767684	-0.2281662689790268	1.27247491242325	0.8734561409931326	-0.2261691643423683	1.331117965083796	1.033809937282374	-0.3655182080887108	1.166572603637607	1.061664725749419	-0.4438683960191537	1.180086453380367	0.04609808964568576	-0.4372900474877548	1.434318798714796	0.05237216570643988	-0.4619044727430339	1.366416626546341	0.01402976583555801	-0.3695719113710541	1.304667501079881	0.7837326677029656	-0.3377119664578638	1.400175361709886	0.7217160587329103	-0.4026271390267953	1.325657137401875	0.6330673282114168	-0.3451350211458859	1.31094355182544	0.3379170517802164	-0.3702093754090756	1.340378962085524	0.2458420811256788	-0.4370582740280436	1.300008063390609	0.1694400659953219	-0.371609983465078	1.335096244230285	0.5276898684868493	-0.358761519797948	1.340087217461994	0.5305469169801733	-0.472384476539388	1.262218905220715	0.06102260028901763	-0.378417752813564	1.271046626677425	0.06436332944068679	-0.4826668496262889	1.255110475238833	0.929786540457365	-0.409121251004654	1.340841775120607	0.5273410598466139	-0.4178125559813816	1.206858852600256	1.123492849440259	-0.2598393693727121	1.251553144032359	0.05177710390418921	-0.4390616641833899	1.31987081423381	1.451134171889353	-0.2948372301387933	1.271791101205854	1.521905049080481	-0.6318020174428289	1.306767002478284	1.463760113926309	-0.6867091308604472	1.20198260441092	1.48286739688126	-0.6697126145322805	1.182505099575473	1.143453719359851	-0.7390285389948815	1.182588718733155	1.131510089650384	-0.6503166307715906	1.241894943212159	1.415404720764206	-0.7022409009229132	1.194808136458467	1.239527343277809	-0.7108945387271948	1.24985428175449	1.313093510217731	-0.7138547017925742	1.225000368045018	1.054154431168044	-0.6988112851353867	1.294237129023554	0.8979959864710469	-0.7170955357009621	1.235632378466077	0.8767281624844829	-0.7149177364108273	1.315837362240462	1.020906433267216	-0.6302508514804104	1.161219920178039	1.057144722630396	-0.5366023055395368	0.9434858404861534	0.3190971582401452	-0.584093854810982	1.074740043007568	0.1015811831120614	-0.5569193399145888	0.9961631083671612	0.134368881758265	-0.6426910057639036	1.298935260543045	0.797807732890668	-0.6715151457599846	1.410026096400088	0.739714785006705	-0.6332290326815584	1.337348122042218	0.6522798292691441	-0.6947915809875804	1.217721047419818	0.4207959227202731	-0.6767206519801839	1.181714814544317	0.3332041545966289	-0.6071199896566727	1.091337697935151	0.3097888964635598	-0.662204094396641	1.360456038009586	0.5483978143343367	-0.7021222299332824	1.383619872100479	0.5333032753309624	-0.5917644457898646	0.989331463139984	0.2599947474111419	-0.6436572927336058	1.011077286598534	0.2532219387245881	-0.5414897267047732	1.24592051248136	0.9220261973245717	-0.5683350698834272	1.378327044761653	0.5317711167826549	-0.6461978521512499	1.187729961064159	1.131708618794432	-0.6893141949825017	0.9830728794381332	0.259373194721826	-0.5817108202459691	1.261316769816565	1.472047897908019	-0.6793368919031049	
57	3.66	1.333676364707213	1.463945902307095	-0.4927223771202812	1.222337954551325	1.538820442336553	-0.4714143118103276	1.322817032995823	1.506694713788022	-0.3378034754079313	1.37161123670619	1.44359881855311	-0.3023496752373872	1.27464370243798	1.461372516740238	-0.2863668782751411	1.213808979993733	1.139018189296107	-0.2099560052249789	1.207548477833542	1.121888869395759	-0.2975907824390923	1.301734211508538	1.399423063383702	-0.2673692982974627	1.235414012463109	1.231132358182379	-0.2449021117709743	1.298586620903146	1.297759653087983	-0.2494679317411941	1.258776717960302	1.049910423833137	-0.2484174218312751	1.341006117971873	0.900484240737772	-0.2278348000591073	1.284225288678601	0.8747522269868878	-0.2255151389053516	1.336485649170256	1.034494959703214	-0.3651451311982966	1.172047893971429	1.062341518076316	-0.4437238243325081	1.180250873994718	0.04642151931560837	-0.4372710960545158	1.434497077336428	0.05228477637098704	-0.4618436351650024	1.366518237993472	0.01407471723402596	-0.3695126258295793	1.30889745501944	0.7839371591924793	-0.337763966833228	1.403723688251578	0.7210313922023995	-0.4028227159013827	1.328436050118492	0.6330804597327175	-0.3452613415468847	1.311984535909351	0.337972684497049	-0.3702988173487804	1.341144286055636	0.245779913329993	-0.4371061579688623	1.30053485283705	0.1695292904078074	-0.3716288905192146	1.336849571926639	0.5276220042695234	-0.3589329926299458	1.34172011711109	0.5304680746626793	-0.4725614508236722	1.26241543945588	0.06122481983847339	-0.3783938773662694	1.27126202613641	0.0644943365249635	-0.4826436327059899	1.260646368743341	0.9304812861500245	-0.4090631253393451	1.342464909855108	0.5272843101873615	-0.417979804873828	1.214859051805015	1.123802158804463	-0.2589879573655732	1.251726566487003	0.05198619101985635	-0.4390347660765055	1.326186795278247	1.45192490746887	-0.294862534000423	1.277296174968737	1.522649154114358	-0.6317204149061333	1.312083960824617	1.464462317441395	-0.6867025961196513	1.20735902381495	1.483657911483493	-0.6694411754004256	1.186523520306046	1.144418337088974	-0.738374778180214	1.186961096194163	1.132522676395383	-0.6496574646082676	1.246953675545266	1.416195876738979	-0.7020017622688384	1.199261186624881	1.240466953392269	-0.7103490210395408	1.254531032087693	1.313853180255846	-0.7135936296139762	1.228301875442772	1.054720168409127	-0.6984160585094072	1.295620117624698	0.8977672826455771	-0.7170587155023952	1.236798724398527	0.8771656308299756	-0.7143762583868973	1.321664652202315	1.022052378855825	-0.6299259649967689	1.166856207089834	1.057982972973155	-0.5364746146000636	0.9577394818745475	0.3160779834224497	-0.5832434233981154	1.093896567817558	0.1015096866364548	-0.5567667669405353	1.014582898842174	0.1327774382739033	-0.6424278206567107	1.306726693521431	0.7995648104499937	-0.6713923142701466	1.418703805838332	0.7432477704967461	-0.6330346789416816	1.347428819196866	0.6546441449033276	-0.694566626793865	1.2311550474563	0.4216676380918707	-0.6762709134136747	1.196314888882721	0.3336909595836969	-0.6065623326361277	1.106257242413434	0.3090095731773782	-0.6616169018607041	1.372168337507934	0.5511335253459833	-0.7018257654360641	1.395529928762053	0.5364722832431223	-0.5914512535565692	1.004921269962852	0.2578876974993066	-0.6430080979356838	1.026754268344466	0.2515299530865977	-0.5408324521520528	1.251732819221739	0.9229981484906855	-0.5683059265853748	1.390272520166699	0.5348038301782085	-0.6458858297836347	1.191930344283968	1.132683407648371	-0.6886774920274988	0.9986709667686511	0.2572592265572912	-0.5810608592109771	1.266659519396674	1.472788406357155	-0.6792154548826872	
58	3.665	1.339493374692574	1.464647973670555	-0.4927778307859936	1.228272426571428	1.539624148952159	-0.471215228737715	1.32905374627271	1.507448303445989	-0.337844303085951	1.377881124760375	1.444320076044032	-0.3024938819729596	1.280968715935001	1.462181609191133	-0.286276376081529	1.221870546601092	1.139382154169225	-0.2091449454465191	1.215383574943246	1.122095794702021	-0.2967324025393835	1.30837269314642	1.40011174762171	-0.2672421807343384	1.242921094154961	1.231545353875046	-0.2442995606201039	1.30576434557257	1.298460956294009	-0.2491831555794987	1.26785990071974	1.050861398850822	-0.2477863964277297	1.352382856116612	0.9026723420261652	-0.2275533494963986	1.295999034142542	0.8761119818095471	-0.224909144599748	1.341830130297857	1.035149837311063	-0.3647818636814286	1.177503397226628	1.062988641992868	-0.4435952059196663	1.180413394258394	0.04674125242585994	-0.4372629530744189	1.434673728645785	0.05219803315635037	-0.4617828485998719	1.366615277013541	0.01412222942977732	-0.3694550259538217	1.313093767327145	0.784121666330275	-0.3378332476983335	1.407224639439532	0.7203260547775683	-0.4030351627154299	1.331167856950035	0.6330861168991819	-0.3454030026670313	1.312987385381732	0.3380317015663127	-0.3703990516589559	1.341884692903308	0.2457238396755153	-0.4371614894210342	1.301042726190418	0.169622119047522	-0.3716556271832864	1.338546875396489	0.5275559076288991	-0.3591184042059145	1.34329678027061	0.530391666826961	-0.4727522271285698	1.262605961065168	0.06142717558135963	-0.3783774099772658	1.271475723918738	0.06462420889545256	-0.4826274440710777	1.266164463933562	0.9311470277274148	-0.4090238514693829	1.344030397624498	0.5272316339503424	-0.4181603159378661	1.222820228285945	1.124099643664745	-0.2581582655016524	1.251897886603826	0.05219298445271425	-0.4390155869525855	1.332482506846129	1.452687311246792	-0.294896791338119	1.282820343558096	1.523361895061545	-0.6316522166637852	1.317422059672034	1.465130157387451	-0.6867042304978197	1.212756658140631	1.484420613186321	-0.6691893241350746	1.190493259653157	1.145381110868921	-0.7377675298194536	1.191263948092641	1.133525957959821	-0.649047062438758	1.252024242454893	1.416963223984797	-0.7017824635015538	1.203684159784558	1.241397923377447	-0.7098426346582963	1.259195496441837	1.314589229430926	-0.7133562960342846	1.231565718502418	1.055301142389261	-0.6980559477684533	1.297015126762945	0.8975996913090143	-0.7170330398865854	1.237995211814922	0.8776457474703363	-0.7138597608905471	1.327481366111256	1.023182895343471	-0.6296106290800221	1.172477130035843	1.058796709711906	-0.5363627862763165	0.9721308700955479	0.3126799789802922	-0.5823326736719817	1.113305651837039	0.1012876850378508	-0.5565975141173453	1.033247821388963	0.1309613382576506	-0.6421332644858413	1.314422884671338	0.8012927603642453	-0.6712803958359327	1.42725317235307	0.7467374162067244	-0.6328768612924672	1.357350824052024	0.6569966583184939	-0.6943355048763342	1.244538009325918	0.4224333245074021	-0.6757914536791478	1.210965431368503	0.3340464522274528	-0.6059798381510441	1.121261363942118	0.3080221275276365	-0.6609932085814195	1.383680580425806	0.5538731152244294	-0.7015094863552271	1.407264121201506	0.539664077060038	-0.591123034842898	1.020667215490088	0.2554812062424167	-0.6423121498164437	1.042602617304335	0.2495491916868822	-0.5401328335424962	1.257534921641115	0.9239499457712549	-0.5682954794328228	1.402030180589464	0.5378606950764768	-0.6455563829342474	1.196068915736684	1.133650886369686	-0.6880877909122814	1.014434976108744	0.2548326406192659	-0.5803632982832128	1.272023441757788	1.473497392590211	-0.6791071398629791	
59	3.67	1.345311905865808	1.465313940229086	-0.4928412215742199	1.234211265404827	1.540398324980505	-0.4710362949846224	1.335279573128301	1.50816849259565	-0.3378957740214892	1.384132897722287	1.445005694017478	-0.3026430888805692	1.287275698935773	1.462960796253746	-0.286200637878516	1.229887596394678	1.139731750976142	-0.2083554683628153	1.223183161511649	1.122286378516745	-0.2958950091290635	1.314987346459776	1.400771450234771	-0.267127391563932	1.250392946593919	1.231939054012924	-0.2437160647976204	1.312909652394451	1.299136480848868	-0.2489111507482643	1.276913265083025	1.05182600024299	-0.2471862795145725	1.363755705823628	0.9049340116273341	-0.2273208093091762	1.307791333023117	0.8775342774122301	-0.2243503755424206	1.347153660640763	1.035774537440908	-0.3644280143821077	1.18294106069246	1.06360321077346	-0.4434824520912268	1.180574009649676	0.04705680282492593	-0.4372647850018775	1.434848766259333	0.05211100688976088	-0.4617213290684138	1.366707693109229	0.01417039426089881	-0.3693987935428867	1.317258355525373	0.7842847328780209	-0.3379164237389275	1.410680234374268	0.7195987966519628	-0.4032606894920905	1.333854286776866	0.6330831804025863	-0.3455568879164965	1.31395296803061	0.3380932327754912	-0.3705079643131362	1.342601108351294	0.2456729719215037	-0.4372222677617206	1.301531814261686	0.1697175750263927	-0.3716887123834551	1.340189814547046	0.5274907252131018	-0.3593148571040464	1.344819548119948	0.5303171486395457	-0.4729538721306578	1.262790135943356	0.06162877104008907	-0.3783674759485649	1.271688083132771	0.0647523184498569	-0.4826173359534793	1.271667403716452	0.9317822405230731	-0.4089999578935223	1.345540269455705	0.5271823483549501	-0.4183511471797067	1.230741408231804	1.124381444392851	-0.2573493624578427	1.252067112165358	0.05239680114027068	-0.4390033493584988	1.338760142950745	1.453416761660058	-0.2949406227086574	1.288362997137722	1.524039787168396	-0.6315976584409523	1.322780452196145	1.465760463843378	-0.6867147838906363	1.21817467750671	1.485151974258547	-0.6689569368084188	1.194420224038395	1.14633775203724	-0.7372068070438136	1.195499575427786	1.134516672018087	-0.6484850114624742	1.257107498921782	1.417703047671459	-0.7015835997207333	1.208080531576661	1.242316215174314	-0.709375915715274	1.26385035187154	1.315298178026689	-0.7131417938397336	1.234796089166846	1.055892459749302	-0.6977283814935594	1.298427885908637	0.8974860385626071	-0.7170131659093448	1.239226132758108	0.8781613989156146	-0.7133675299986501	1.333289058136652	1.024290677008522	-0.6293039541411847	1.178084391799346	1.059580498422471	-0.5362665572814627	0.9866686365799407	0.308919679665205	-0.5813652941954175	1.132943711057451	0.1009285904090341	-0.5564127642247294	1.052140797222552	0.1289389699675945	-0.6418086321302591	1.322025245486935	0.8029828654224247	-0.6711776199243861	1.435675772365691	0.7501716215364169	-0.6327546955261438	1.367113314274838	0.6593256558954734	-0.6940988612049446	1.257867080285726	0.4230906193275772	-0.6752850984600689	1.225661375262975	0.3342732875686855	-0.605375921751993	1.136347034958003	0.3068346570572236	-0.6603361463382501	1.394990195554533	0.556602805297966	-0.7011757727117798	1.418818893959978	0.5428639066903155	-0.5907824548165783	1.036568096524139	0.2527902285221827	-0.6415724511211212	1.058620754040943	0.2472935618090973	-0.5393940273950588	1.263329042856852	0.9248756903844649	-0.5682999571601363	1.41359634183396	0.5409271166128855	-0.6452122137644266	1.200149629549456	1.134607426772931	-0.6875445885358539	1.030364418657007	0.2521085615587568	-0.5796210882431987	1.277407697424602	1.474171531485958	-0.6790123177187245	
